PathFileType	4	(X/Y/Z)	C:\Git\research_data\ESMAC_2023\simulations\TD07\pre\dynamic21_l\marker_experimental.trc
DataRate	CameraRate	NumFrames	NumMarkers	Units	OrigDataRate	OrigDataStartFrame	OrigNumFrames
200.000000	200.000000	4	54	mm	200.000000	96	385
Frame#	Time	C7			T10			CLAV			STRN			RBAK			LASI			RASI			SACR			RT2			RT3			RKNE			RS1			RS2			RS3			RANK			RHEE			RTOE			RM5D			LT1			LT2			LT3			LKNE			LS1			LS2			LS3			LANK			LHEE			LTOE			LM5D			RT1			*30			*31			*32			*33			*34			*35			*36			*37			*38			*39			*40			*41			*42			*43			*44			*45			*46			*47			*48			*49			*50			*51			*52			*53			
		X1	Y1	Z1	X2	Y2	Z2	X3	Y3	Z3	X4	Y4	Z4	X5	Y5	Z5	X6	Y6	Z6	X7	Y7	Z7	X8	Y8	Z8	X9	Y9	Z9	X10	Y10	Z10	X11	Y11	Z11	X12	Y12	Z12	X13	Y13	Z13	X14	Y14	Z14	X15	Y15	Z15	X16	Y16	Z16	X17	Y17	Z17	X18	Y18	Z18	X19	Y19	Z19	X20	Y20	Z20	X21	Y21	Z21	X22	Y22	Z22	X23	Y23	Z23	X24	Y24	Z24	X25	Y25	Z25	X26	Y26	Z26	X27	Y27	Z27	X28	Y28	Z28	X29	Y29	Z29	X30	Y30	Z30	X31	Y31	Z31	X32	Y32	Z32	X33	Y33	Z33	X34	Y34	Z34	X35	Y35	Z35	X36	Y36	Z36	X37	Y37	Z37	X38	Y38	Z38	X39	Y39	Z39	X40	Y40	Z40	X41	Y41	Z41	X42	Y42	Z42	X43	Y43	Z43	X44	Y44	Z44	X45	Y45	Z45	X46	Y46	Z46	X47	Y47	Z47	X48	Y48	Z48	X49	Y49	Z49	X50	Y50	Z50	X51	Y51	Z51	X52	Y52	Z52	X53	Y53	Z53	X54	Y54	Z54	

97	0.48	134.6134796142577	1258.69287109375	169.1035308837891	121.3881225585937	1035.472045898438	198.7562408447266	262.5698852539061	1210.703857421875	167.9033660888672	318.7438964843749	1080.120361328125	171.4795989990235	114.7428665161132	1135.021118164062	286.0947875976562	250.3575439453124	837.6554565429688	72.94993591308598	269.3854675292968	845.5718383789062	324.5953979492188	102.8257064819335	881.9400634765625	211.8322143554688	266.4669189453124	532.8754272460938	349.8684692382813	312.0327758789061	552.6963500976562	356.4113769531251	338.3402404785156	448.8837280273438	343.4333801269532	255.2697296142577	374.1551513671875	357.0890502929688	196.4118347167968	341.2068481445312	355.9233703613282	241.1656341552734	309.7695617675781	356.1633605957032	117.3968124389648	153.3073425292969	326.9619750976562	57.18245315551752	144.8106536865234	280.7278747558594	224.8714447021484	58.03893280029298	309.7620239257813	155.4202575683593	81.85821533203126	345.0345153808594	239.5549163818359	633.9169311523438	51.49825668334965	214.5596618652343	572.622314453125	59.56955718994145	264.5104675292968	574.6761474609375	75.20062255859379	219.5158538818359	422.6737670898438	90.24675750732426	190.163589477539	291.8190612792969	85.08014678955081	142.7262573242187	245.5646362304688	75.82534027099612	185.0347290039062	228.1199951171875	98.65616607666018	94.24915313720702	70.60293579101562	113.8280715942383	47.20185089111325	51.70598602294922	150.4221801757812	245.8128204345703	40.32080841064455	144.1501159667969	166.5514068603515	26.59518051147462	95.02924346923831	305.9636840820311	579.84619140625	364.6166381835938	nan	nan	nan	nan	nan	nan	nan	nan	nan	nan	nan	nan	nan	nan	nan	nan	nan	nan	nan	nan	nan	nan	nan	nan	nan	nan	nan	nan	nan	nan	nan	nan	nan	nan	nan	nan	nan	nan	nan	nan	nan	nan	nan	nan	nan	nan	nan	nan	nan	nan	nan	nan	nan	nan	nan	nan	nan	nan	nan	nan	nan	nan	nan	nan	nan	nan	nan	nan	nan	nan	nan	nan	
98	0.485	140.3947296142577	1259.722290039062	168.3885955810547	126.9847946166991	1036.354125976562	198.0746307373047	268.2330017089843	1211.684692382812	168.0405273437501	324.3185424804686	1081.055541992188	171.5112609863282	119.8519592285155	1135.779907226562	284.9205017089844	255.6926269531249	838.208984375	72.58163452148442	275.3899841308593	847.0661010742188	323.9802551269532	108.5743942260741	882.9312133789062	211.8502960205078	275.1173706054686	534.6650390625	350.2878723144532	320.2872009277343	554.984619140625	356.1264648437501	347.0187072753906	450.9514465332031	342.7569885253907	265.6219177246093	373.6341247558594	356.6828308105469	207.781997680664	338.931640625	355.6414184570313	253.5030670166015	308.7835693359375	355.7042846679688	134.7132263183593	148.3540649414062	326.5049438476562	74.69501495361321	138.0116577148438	280.3668823242188	245.319107055664	56.94651412963869	309.0583496093751	175.1292114257812	78.11787414550783	344.4055786132813	242.3786468505859	634.0289306640625	51.21232604980473	216.5049285888672	573.0282592773438	59.49520492553715	266.4700622558593	574.6267700195312	74.75616455078129	219.7982482910156	423.1786804199219	90.52205657958989	190.1622772216796	292.5038757324219	85.31901550292972	142.6273345947265	246.2784881591797	76.2818298339844	185.0581665039062	228.7230834960938	98.9077072143555	94.27426147460936	71.22022247314453	114.3330535888672	47.38975143432614	52.46328735351562	151.0689392089844	245.9586486816406	40.19688796997072	144.1937561035157	166.448486328125	26.65746498107911	95.3223571777344	314.6091918945311	581.6458740234375	365.0327148437501	nan	nan	nan	nan	nan	nan	nan	nan	nan	nan	nan	nan	nan	nan	nan	nan	nan	nan	nan	nan	nan	nan	nan	nan	nan	nan	nan	nan	nan	nan	nan	nan	nan	nan	nan	nan	nan	nan	nan	nan	nan	nan	nan	nan	nan	nan	nan	nan	nan	nan	nan	nan	nan	nan	nan	nan	nan	nan	nan	nan	nan	nan	nan	nan	nan	nan	nan	nan	nan	nan	nan	nan	
99	0.49	146.1983184814452	1260.653930664062	167.6918334960938	132.5918579101562	1037.145874023438	197.4295196533203	273.9145507812499	1212.5615234375	168.2008666992188	329.9111328124999	1081.878173828125	171.5864562988282	124.9880981445311	1136.447875976562	283.7644348144531	260.9833679199218	838.6707153320312	72.20162200927739	281.3961791992186	848.4195556640625	323.3673400878907	114.3247680664062	883.8194580078125	211.8961181640625	283.5581665039061	536.3436889648438	350.6895141601563	328.3548889160155	557.1351928710938	355.8340454101563	355.4941406249999	452.8419494628906	342.0607604980469	275.8891601562499	372.9587707519531	356.2914428710938	219.1617431640624	336.5109252929688	355.3522644042969	265.8110961914062	307.7052917480469	355.2760314941407	152.2429656982421	143.3930053710938	326.1090393066406	92.47644805908196	131.2160797119141	280.0755004882812	265.8540344238281	55.96284103393556	308.3854980468751	195.0321502685546	74.43881225585939	343.8259582519532	245.1864318847656	634.107421875	50.92908477783207	218.4620208740234	573.417236328125	59.40846633911137	268.4189453124999	574.585693359375	74.25487518310551	220.1169281005859	423.6728210449219	90.77976226806645	190.1843261718749	293.1815490722656	85.56291961669925	142.5330810546875	246.9944458007812	76.76827239990237	185.09765625	229.3258666992188	99.15937042236331	94.29846954345702	71.86101531982422	114.8681945800781	47.58064270019528	53.25886535644531	151.7500152587891	246.103530883789	40.0690040588379	144.2388610839844	166.3376922607422	26.72896957397462	95.63062286376956	323.0499572753905	583.3323974609375	365.4282531738282	nan	nan	nan	nan	nan	nan	nan	nan	nan	nan	nan	nan	nan	nan	nan	nan	nan	nan	nan	nan	nan	nan	nan	nan	nan	nan	nan	nan	nan	nan	nan	nan	nan	nan	nan	nan	nan	nan	nan	nan	nan	nan	nan	nan	nan	nan	nan	nan	nan	nan	nan	nan	nan	nan	nan	nan	nan	nan	nan	nan	nan	nan	nan	nan	nan	nan	nan	nan	nan	nan	nan	nan	
100	0.495	152.0249176025389	1261.485717773438	167.0153350830078	138.2100372314452	1037.845458984375	196.8238372802735	279.6152954101561	1213.33251953125	168.3851318359376	335.5225524902343	1082.587036132812	171.7054748535157	130.1522521972655	1137.022827148438	282.6295776367188	266.2294311523437	839.0418701171875	71.80797576904301	287.4077148437499	849.6250610351562	322.7571105957032	120.0785751342772	884.6035766601562	211.9697265625	291.7730102539061	537.90283203125	351.0541381835938	336.2367553710936	559.1295776367188	355.5292053222657	363.7633972167968	454.5498657226562	341.3450317382813	286.0721435546874	372.1349182128906	355.9119873046876	230.5575866699218	333.9548034667969	355.0500488281251	278.0878906249999	306.5482482910156	354.8771667480469	169.9840850830078	138.4554443359375	325.7775268554688	110.5268936157226	124.4590225219727	279.8557434082031	286.4671936035156	55.10127258300783	307.7501525878907	215.1201782226562	70.85084533691408	343.2996215820313	247.9849853515625	634.1534423828125	50.65607452392582	220.443359375	573.7908325195312	59.3188743591309	270.3792419433593	574.5408935546875	73.72286224365239	220.4745788574218	424.1539001464844	91.0188369750977	190.2315826416015	293.8499145507812	85.8090744018555	142.4462738037109	247.7100830078125	77.27959442138675	185.1536407470703	229.9274749755859	99.40637969970706	94.32290649414061	72.52232360839844	115.4260864257813	47.77333068847653	54.08889007568359	152.4551086425781	246.2440795898437	39.93993759155275	144.2830047607422	166.2211456298828	26.80974006652833	95.94941711425784	331.2699279785155	584.8967895507812	365.7843322753907	nan	nan	nan	nan	nan	nan	nan	nan	nan	nan	nan	nan	nan	nan	nan	nan	nan	nan	nan	nan	nan	nan	nan	nan	nan	nan	nan	nan	nan	nan	nan	nan	nan	nan	nan	nan	nan	nan	nan	nan	nan	nan	nan	nan	nan	nan	nan	nan	nan	nan	nan	nan	nan	nan	nan	nan	nan	nan	nan	nan	nan	nan	nan	nan	nan	nan	nan	nan	nan	nan	nan	nan	
